<?xml version="1.0" standalone="no"?>
<!DOCTYPE svg PUBLIC "-//W3C//DTD SVG 20010904//EN"
 "http://www.w3.org/TR/2001/REC-SVG-20010904/DTD/svg10.dtd">
<svg version="1.0" xmlns="http://www.w3.org/2000/svg"
 width="512.000000pt" height="512.000000pt" viewBox="0 0 512.000000 512.000000"
 preserveAspectRatio="xMidYMid meet">

<g transform="translate(0.000000,512.000000) scale(0.100000,-0.100000)"
fill="#000000" stroke="none">
<path d="M1560 5043 c-55 -10 -103 -12 -180 -7 -152 11 -187 8 -282 -20 -88
-27 -105 -39 -129 -91 -12 -25 -23 -32 -69 -42 -30 -6 -88 -29 -128 -50 -67
-35 -74 -37 -83 -20 -5 9 -16 17 -23 17 -20 0 -85 -50 -146 -113 -31 -33 -78
-71 -105 -85 -44 -25 -55 -39 -119 -153 -39 -70 -89 -151 -111 -180 -81 -108
-107 -172 -150 -369 -26 -120 -27 -126 -11 -176 21 -66 20 -88 -5 -158 l-20
-59 22 -71 c27 -85 29 -175 10 -411 -11 -129 -11 -225 -1 -498 6 -185 11 -557
9 -825 -2 -531 -3 -517 62 -802 43 -194 76 -274 161 -398 102 -148 349 -379
395 -370 39 7 16 43 -87 133 -123 107 -220 230 -289 365 -61 120 -92 206 -136
381 -19 76 -45 159 -57 184 l-22 45 38 32 c42 34 42 35 15 149 -11 50 -10 68
6 145 19 89 19 89 32 57 23 -57 26 -142 13 -305 -18 -215 1 -362 55 -426 15
-18 31 -62 45 -121 44 -187 130 -305 313 -429 195 -132 369 -217 573 -278 122
-37 252 -39 342 -5 l64 23 22 -21 c22 -21 24 -21 167 -6 79 8 190 19 246 26
85 10 119 9 213 -5 104 -15 122 -15 243 0 105 14 144 15 201 6 59 -9 76 -8
103 5 28 13 90 16 396 17 l362 2 155 31 c85 18 200 37 255 43 264 29 458 124
648 315 52 52 99 95 104 95 13 0 23 -24 23 -55 0 -13 -18 -58 -39 -99 -38 -72
-40 -73 -46 -45 -4 16 -11 29 -17 29 -6 0 -41 -29 -78 -64 -113 -106 -287
-194 -480 -242 -124 -30 -185 -55 -155 -62 11 -2 65 -2 120 0 112 6 154 19
219 73 24 19 46 35 49 35 4 0 14 -14 22 -31 19 -36 26 -35 133 18 53 27 74 42
77 59 3 13 7 35 10 48 6 31 34 40 82 27 36 -10 39 -9 81 32 24 23 66 72 92
109 47 67 98 183 86 195 -4 4 -20 -1 -36 -11 -27 -15 -30 -15 -30 -1 0 9 11
38 25 66 20 39 35 54 73 72 41 19 48 27 55 62 5 22 26 97 48 166 62 195 82
307 75 414 -4 79 -3 95 14 120 32 48 26 80 -25 134 -52 55 -75 127 -57 177
l10 29 16 -37 c9 -21 16 -52 17 -70 0 -18 4 -42 8 -53 22 -54 29 126 25 580
-2 309 0 497 7 550 10 73 9 86 -11 145 -28 83 -36 167 -21 224 9 37 8 62 -8
142 -11 53 -17 103 -14 110 3 8 17 14 32 14 41 0 48 11 54 80 7 94 -8 209 -47
359 -35 137 -46 164 -46 118 0 -34 -18 -35 -30 -1 -15 39 -12 76 10 104 11 14
20 33 20 43 0 9 -25 68 -56 130 -116 231 -219 354 -355 422 -41 21 -108 61
-149 89 -196 136 -353 194 -525 197 -81 1 -73 5 -184 -76 -27 -20 -46 -25 -94
-25 -71 0 -68 12 6 20 45 4 52 8 55 28 7 48 -10 53 -162 51 -93 -2 -148 2
-163 9 -26 14 -142 16 -163 2 -13 -8 -12 -11 5 -25 19 -15 14 -16 -65 -11 -47
3 -110 13 -140 21 -40 12 -139 19 -355 27 -451 17 -450 17 -519 -15 -69 -32
-130 -35 -251 -12 -46 9 -98 13 -122 9 -34 -5 -47 -2 -69 15 -30 24 -48 24
-154 4z m54 -58 c7 -20 -2 -42 -22 -51 -9 -4 -102 -11 -207 -14 -180 -6 -194
-8 -266 -37 -64 -25 -80 -28 -99 -18 l-22 12 31 26 c39 32 89 47 161 47 95 0
273 19 320 34 60 19 97 19 104 1z m1256 -23 c55 -7 55 -7 25 -19 -68 -28 -131
-34 -277 -27 -151 7 -234 0 -207 -17 9 -6 -13 -9 -62 -9 -60 0 -78 3 -83 15
-7 20 22 31 123 49 80 15 382 19 481 8z m1135 -190 c119 -26 193 -55 235 -92
l35 -29 -56 29 c-111 59 -183 70 -473 71 -144 1 -274 4 -291 8 l-30 7 35 11
c60 20 80 22 270 18 138 -2 208 -8 275 -23z m355 -892 l0 -240 -670 0 -670 0
0 -35 0 -35 730 0 730 0 0 -315 0 -315 -215 0 -214 0 -3 -67 -3 -68 -477 -3
-478 -2 0 100 0 100 260 0 260 0 0 35 0 35 -260 0 -260 0 0 105 0 105 260 0
260 0 0 30 0 30 -295 0 -295 0 0 -275 0 -275 -200 0 -200 0 0 -40 0 -40 60 0
60 0 0 -215 0 -215 -60 0 -60 0 0 -60 0 -60 -260 0 -260 0 0 -30 0 -30 310 0
310 0 0 -240 0 -240 -310 0 -310 0 0 -25 0 -25 310 0 310 0 1 -187 0 -188 24
67 c54 156 58 206 63 846 l4 592 824 0 825 0 -4 -727 c-3 -785 -2 -775 -57
-832 -63 -68 -191 -90 -572 -98 l-277 -6 -5 24 c-3 13 -13 62 -22 109 -18 96
-53 210 -64 210 -4 0 -11 -37 -15 -82 -7 -85 -38 -265 -47 -273 -3 -3 -83 6
-179 19 -226 32 -433 56 -488 56 -38 0 -43 2 -38 20 5 20 0 20 -294 20 l-299
0 0 -70 0 -70 -375 0 -375 0 0 70 0 70 -355 0 -355 0 0 215 0 215 355 0 355 0
0 25 0 25 -315 0 -315 0 0 240 0 240 316 0 315 0 -3 28 -3 27 -237 3 -238 2 0
60 0 59 -102 3 -103 3 -3 213 -2 212 104 0 105 0 3 63 3 62 123 3 122 3 0 49
0 50 -217 2 -218 3 -3 312 -2 313 732 2 733 3 3 33 3 32 -670 0 -671 0 0 240
0 240 1775 0 1775 0 0 -240z m-4202 -1195 c0 -93 -3 -190 -7 -215 l-8 -45 -12
30 c-8 19 -11 70 -10 140 5 190 2 220 -25 301 -31 97 -43 164 -28 164 6 0 20
-19 31 -42 l21 -43 -6 91 c-4 67 -2 98 7 115 12 21 15 3 25 -151 7 -96 12
-251 12 -345z m6 -417 c28 -97 37 -224 30 -405 -4 -104 -11 -169 -15 -160 -5
8 -19 55 -31 104 -19 74 -22 116 -23 263 0 156 8 250 20 250 3 0 11 -24 19
-52z"/>
<path d="M1560 3310 l0 -30 260 0 260 0 0 -105 0 -105 -260 0 -260 0 0 -35 0
-35 260 0 260 0 0 -80 0 -80 35 0 35 0 0 250 0 250 -295 0 -295 0 0 -30z"/>
<path d="M1550 2755 l0 -45 200 0 200 0 0 45 0 45 -200 0 -200 0 0 -45z"/>
<path d="M1550 2395 l0 -25 200 0 200 0 0 25 0 25 -200 0 -200 0 0 -25z"/>
<path d="M3470 2360 l0 -40 130 0 130 0 0 40 0 40 -130 0 -130 0 0 -40z"/>
<path d="M3470 1975 l0 -45 130 0 130 0 0 45 0 45 -130 0 -130 0 0 -45z"/>
<path d="M1330 1870 l0 -50 90 0 90 0 0 50 0 50 -90 0 -90 0 0 -50z"/>
<path d="M1937 1913 c-4 -3 -7 -26 -7 -50 l0 -43 90 0 90 0 0 50 0 50 -83 0
c-46 0 -87 -3 -90 -7z"/>
<path d="M3470 1584 l0 -46 115 4 c63 1 118 8 123 13 6 6 13 25 17 43 l7 32
-131 0 -131 0 0 -46z"/>
</g>
</svg>
