<svg xmlns="http://www.w3.org/2000/svg" version="1.1"
    xmlns:xlink="http://www.w3.org/1999/xlink"
    xmlns:svgjs="http://svgjs.com/svgjs" width="1000" height="1000">
    <rect width="1000" height="1000" rx="500" ry="500" fill="none"></rect>
    <g transform="matrix(1,0,0,1,0,0)">
        <svg xmlns="http://www.w3.org/2000/svg" version="1.1"
            xmlns:xlink="http://www.w3.org/1999/xlink"
            xmlns:svgjs="http://svgjs.com/svgjs" width="100%" height="100%">
            <svg data-v-0dd9719b="" version="1.0"
                xmlns="http://www.w3.org/2000/svg"
                xmlns:xlink="http://www.w3.org/1999/xlink" width="100%" height="100%" viewBox="0 0 400 400" preserveAspectRatio="xMidYMid meet" color-interpolation-filters="sRGB" style="margin: auto;">
                <rect data-v-0dd9719b="" x="0" y="0" width="100%" height="100%" fill="none" fill-opacity="1" class="background"></rect>
                <g data-v-0dd9719b="" fill="#6fa8dc" class="icon-text-wrapper icon-svg-group iconsvg" transform="translate(0,0)">
                    <g class="iconsvg-imagesvg" transform="translate(0,0)">
                        <g>
                            <rect fill="#6fa8dc" fill-opacity="0" stroke-width="2" x="0" y="0" width="400" height="400" class="image-rect"></rect>
                            <svg x="0" y="0" width="400" height="400" filtersec="colorsb2685561631" class="image-svg-svg primary" style="overflow: visible;">
                                <svg xmlns="http://www.w3.org/2000/svg" viewBox="0 0 225 200">
                                    <g transform="translate(2,15)">
                                        <g fill-rule="evenodd">
                                            <path d="M123.88 10.72c141.77 6.37 97.51 105.37 41.25 119.8a40.86 40.86 0 0 0 1.27-15.72c-1.59-17.44-14.06-17.44-15.75-20.93s16.06-9.52 20.5-22.84 2.33-36.78-37.42-42.7-97.88 33-98.94 33.19C-15.75 116-19.42 4.28 123.88 10.72zM76.42 137.81c-.9-3.67-1.42-8.7-1.78-16.46C73.8 103.17 74 74.42 78 69.76s15.12-5.81 22.31 1 7.61 16.81 6.34 27.17-2.65 25.68-1 30.12 16.64 6.13 22.72.22 2.86-16.39-2.38-20.3-9.3-5-8.72-11.47 7.56-14 13.8-19.29 13.32-22.1-7.09-26.11S80.69 60 62.3 77.58c-41.37 39.47-38.83 53.89 14.12 60.23z" fill="#6fa8dc"></path>
                                            <path d="M130.38 182.76c61.55-18.35 78.75-70.34 69.19-122.72C184.11-24.7 110 1.17 65.61 44.57c20.25-9.72 46.83-19.42 68.12-16.24 39.75 5.92 41.87 29.38 37.42 42.7S149 90.38 150.65 93.87s14.16 3.49 15.75 20.93-4.76 30.12-26.11 39-51.9.22-57.51-5.39-7.29-8.88-8.14-27.06S74 74.42 78 69.76s15.12-5.81 22.31 1 7.61 16.81 6.34 27.17-2.65 25.68-1 30.12 16.64 6.13 22.72.22 2.86-16.39-2.38-20.3-9.3-5-8.72-11.47 7.56-14 13.8-19.29 13.32-22.1-7.09-26.11S75.53 57 57.14 74.52c-58.78 56.08-2.43 130.8 73.24 108.24z" fill="#6fa8dc"></path>
                                            <path d="M107.05 0S46.2-2 28.3 38.25c-4.24 9.52-4.91 20.89-2.56 32.75a126 126 0 0 1 9.05-9.52c1.06-.21 59.2-39.11 98.94-33.19S175.6 57.71 171.15 71 149 90.38 150.65 93.87s14.16 3.49 15.75 20.93-4.76 30.12-26.11 39a56.28 56.28 0 0 1-21.49 3.82c1.81.27 3.62.5 5.45.68 68.06 6.49 82.58-8 87.94-56.59S154.46-.36 107.05 0zM37.93 101.72c5-9.3 11.12-19.48 19.21-27.2C75.53 57 103.65 47 124.05 51.06s13.32 20.82 7.09 26.11-13.22 12.83-13.8 19.29 3.49 7.56 8.72 11.47 8.46 14.37 2.38 20.3-21 4.22-22.72-.22-.32-19.77 1-30.12.85-20.41-6.34-27.17S82 65.11 78 69.76s-4.22 33.41-3.38 51.59c.54 11.69 1.44 17.22 3.49 21.17a122.38 122.38 0 0 1-40.18-40.8z" fill="#6fa8dc"></path>
                                            <path d="M37.94 101.71a122.35 122.35 0 0 0 40.19 40.8c-2-3.94-2.95-9.47-3.49-21.16C73.8 103.17 74 74.42 78 69.76s15.12-5.81 22.31 1 7.61 16.81 6.34 27.17-2.65 25.68-1 30.12 16.64 6.13 22.72.22 2.86-16.39-2.38-20.3-9.3-5-8.72-11.47 7.56-14 13.8-19.29 13.32-22.1-7.09-26.11S75.53 57 57.14 74.52c-8.09 7.72-14.26 17.89-19.2 27.19zm80.82 55.91a56.29 56.29 0 0 0 21.53-3.82c21.35-8.88 27.69-21.56 26.11-39s-14.06-17.44-15.75-20.93 16.06-9.52 20.5-22.84 2.33-36.78-37.42-42.7c-21.3-3.18-47.88 6.52-68.12 16.24 19.86-19.4 45.65-35.29 69.48-39.37 24.37 8.68 48.68 27.38 63.38 49.42.4 1.76.76 3.56 1.1 5.42 6.65 36.45.34 72.71-24.86 97.58-12.28 2.68-28.6 2.76-50.46.68-1.84-.18-3.68-.41-5.49-.68z" fill="#6fa8dc"></path>
                                            <path d="M27.46 98.36s-1.34 19.11-14.34 24.46S-6.57 103.14 9.11 93s19.5 1.72 18.35 5.36z" fill="#6fa8dc"></path>
                                        </g>
                                    </g>
                                </svg>
                            </svg>                            <!----></g>
                    </g>
                    <g transform="translate(144.26991271972656,253.5056610107422)">
                        <g data-gra="path-name" fill-rule="" class="tp-name iconsvg-namesvg">
                            <g transform="scale(1)">
                                <g>
                                    <path d="" transform="translate(0, 0)"></path>
                                </g>                                <!---->                                <!---->                                <!---->                                <!---->                                <!---->                                <!---->                                <!----></g>
                        </g>                        <!----></g>
                </g>
                <defs v-gra="od"></defs>
            </svg>
        </svg>
    </g>
</svg>